solid lenscap_fixture
  facet normal 0 0 0
    outer loop
      vertex 0.000000000 0.000000000 0.000000000
      vertex 0.000000000 20.000000000 0.000000000
      vertex 20.000000000 20.000000000 0.000000000
    endloop
  endfacet
  facet normal 0 0 0
    outer loop
      vertex 0.000000000 0.000000000 0.000000000
      vertex 20.000000000 20.000000000 0.000000000
      vertex 20.000000000 0.000000000 0.000000000
    endloop
  endfacet
  facet normal 0 0 0
    outer loop
      vertex 0.000000000 0.000000000 20.000000000
      vertex 20.000000000 0.000000000 20.000000000
      vertex 20.000000000 20.000000000 20.000000000
    endloop
  endfacet
  facet normal 0 0 0
    outer loop
      vertex 0.000000000 0.000000000 20.000000000
      vertex 20.000000000 20.000000000 20.000000000
      vertex 0.000000000 20.000000000 20.000000000
    endloop
  endfacet
  facet normal 0 0 0
    outer loop
      vertex 0.000000000 0.000000000 0.000000000
      vertex 20.000000000 0.000000000 0.000000000
      vertex 20.000000000 0.000000000 20.000000000
    endloop
  endfacet
  facet normal 0 0 0
    outer loop
      vertex 0.000000000 0.000000000 0.000000000
      vertex 20.000000000 0.000000000 20.000000000
      vertex 0.000000000 0.000000000 20.000000000
    endloop
  endfacet
  facet normal 0 0 0
    outer loop
      vertex 0.000000000 20.000000000 0.000000000
      vertex 0.000000000 20.000000000 20.000000000
      vertex 20.000000000 20.000000000 20.000000000
    endloop
  endfacet
  facet normal 0 0 0
    outer loop
      vertex 0.000000000 20.000000000 0.000000000
      vertex 20.000000000 20.000000000 20.000000000
      vertex 20.000000000 20.000000000 0.000000000
    endloop
  endfacet
  facet normal 0 0 0
    outer loop
      vertex 0.000000000 0.000000000 0.000000000
      vertex 0.000000000 0.000000000 20.000000000
      vertex 0.000000000 20.000000000 20.000000000
    endloop
  endfacet
  facet normal 0 0 0
    outer loop
      vertex 0.000000000 0.000000000 0.000000000
      vertex 0.000000000 20.000000000 20.000000000
      vertex 0.000000000 20.000000000 0.000000000
    endloop
  endfacet
  facet normal 0 0 0
    outer loop
      vertex 20.000000000 0.000000000 0.000000000
      vertex 20.000000000 20.000000000 0.000000000
      vertex 20.000000000 20.000000000 20.000000000
    endloop
  endfacet
  facet normal 0 0 0
    outer loop
      vertex 20.000000000 0.000000000 0.000000000
      vertex 20.000000000 20.000000000 20.000000000
      vertex 20.000000000 0.000000000 20.000000000
    endloop
  endfacet
endsolid lenscap_fixture
